# xmcd
#
# Track frame offsets:
#	150
#	24713
#	37456
#	52888
#	67938
#	83408
#	100680
#	113417
#	131149
#	160150
#
# Disc length: 2382 seconds
#
# Revision: 1
# Processed by: cddbd v1.5PL3 Copyright (c) Steve Scherf et al.
# Submitted via: EasyCDDAExtractor 6.5.0.1
#
DISCID=77094c0a
DTITLE=Heath Alan
DYEAR=1900
DGENRE=Blues
TTITLE0=Where I'm Going
TTITLE1=Good-Bye Lorraine
TTITLE2=I'd Rather Be On My Own
TTITLE3=Whatever You Dream
TTITLE4=Traveling On
TTITLE5=Dysfunctional Family
TTITLE6=Sure Shock
TTITLE7=Nothing Like Joining The Party
TTITLE8=What Might Have Been
TTITLE9=Hoochie Coochie Queen
EXTD=
EXTT0=
EXTT1=
EXTT2=
EXTT3=
EXTT4=
EXTT5=
EXTT6=
EXTT7=
EXTT8=
EXTT9=
PLAYORDER=
